<svg width="167" height="152" viewBox="0 0 167 152" fill="none" xmlns="http://www.w3.org/2000/svg">
<path opacity="0.2" d="M149.421 124.364H52.7368C47.9026 124.364 43.7643 123.011 40.3217 120.305C36.8792 117.598 35.1579 114.345 35.1579 110.545V13.8182C35.1579 10.0182 36.8792 6.76515 40.3217 4.05909C43.7643 1.35303 47.9026 0 52.7368 0H114.263L167 41.4545V110.545C167 114.345 165.279 117.598 161.836 120.305C158.394 123.011 154.255 124.364 149.421 124.364ZM105.474 48.3636V13.8182H52.7368V110.545H149.421V48.3636H105.474ZM17.5789 152C12.7447 152 8.60636 150.647 5.16382 147.941C1.72127 145.235 0 141.982 0 138.182V41.4545H17.5789V138.182H114.263V152H17.5789Z" fill="#868686"/>
</svg>
